<svg width="64" height="64" viewBox="0 0 64 64" fill="none" xmlns="http://www.w3.org/2000/svg">
<path d="M2.66666 58.6667H61.3333M52.7467 58.6933V46.8M5.59999 58.6667V16.08C5.59999 10.72 8.26666 8.02667 13.5733 8.02667H30.1867C35.4933 8.02667 38.1333 10.72 38.1333 16.08V58.6667M15.4667 22H28.6667M15.4667 32H28.6667M22 58.6667V48.6667M52.8 29.04C49.5467 29.04 46.9333 31.6533 46.9333 34.9067V40.96C46.9333 44.2133 49.5467 46.8267 52.8 46.8267C56.0533 46.8267 58.6667 44.2133 58.6667 40.96V34.9067C58.6667 31.6533 56.0533 29.04 52.8 29.04Z" stroke="black" stroke-width="1.5" stroke-miterlimit="10" stroke-linecap="round" stroke-linejoin="round"/>
</svg>
