<svg width="64" height="64" viewBox="0 0 64 64" fill="none" xmlns="http://www.w3.org/2000/svg">
<path d="M45.2533 38.5066C48.9067 39.12 52.9333 38.48 55.76 36.5866C59.52 34.08 59.52 29.9733 55.76 27.4666C52.9067 25.5733 48.8267 24.9333 45.1733 25.5733M18.6667 38.5066C15.0133 39.12 10.9867 38.48 8.16 36.5866C4.4 34.08 4.4 29.9733 8.16 27.4666C11.0133 25.5733 15.0933 24.9333 18.7467 25.5733M48 19.0933C47.8322 19.0666 47.6612 19.0666 47.4933 19.0933C45.7137 19.029 44.0288 18.2752 42.7947 16.9913C41.5606 15.7075 40.874 13.9941 40.88 12.2133C40.88 8.39998 43.9467 5.33331 47.76 5.33331C49.5847 5.33331 51.3346 6.05817 52.6249 7.34842C53.9151 8.63867 54.64 10.3886 54.64 12.2133C54.6351 13.9954 53.9413 15.7065 52.7038 16.9888C51.4662 18.2711 49.7808 19.0252 48 19.0933V19.0933ZM15.92 19.0933C16.08 19.0666 16.2667 19.0666 16.4267 19.0933C18.2063 19.029 19.8912 18.2752 21.1253 16.9913C22.3594 15.7075 23.046 13.9941 23.04 12.2133C23.04 8.39998 19.9733 5.33331 16.16 5.33331C14.3353 5.33331 12.5854 6.05817 11.2951 7.34842C10.0049 8.63867 9.28 10.3886 9.28 12.2133C9.30666 15.9466 12.24 18.96 15.92 19.0933ZM32 39.0133C31.8322 38.9866 31.6612 38.9866 31.4933 39.0133C29.7137 38.949 28.0288 38.1952 26.7947 36.9113C25.5606 35.6275 24.874 33.9141 24.88 32.1333C24.88 28.32 27.9467 25.2533 31.76 25.2533C33.5847 25.2533 35.3346 25.9782 36.6249 27.2684C37.9151 28.5587 38.64 30.3086 38.64 32.1333C38.6133 35.8666 35.68 38.9066 32 39.0133ZM24.24 47.4133C20.48 49.92 20.48 54.0266 24.24 56.5333C28.5067 59.3867 35.4933 59.3867 39.76 56.5333C43.52 54.0266 43.52 49.92 39.76 47.4133C35.52 44.5866 28.5067 44.5866 24.24 47.4133Z" stroke="#2ED749" stroke-width="1.5" stroke-linecap="round" stroke-linejoin="round"/>
</svg>
