<svg id="visual" viewBox="0 0 900 600" width="900" height="600" xmlns="http://www.w3.org/2000/svg" xmlns:xlink="http://www.w3.org/1999/xlink" version="1.1"><rect width="900" height="600" fill="#FFFFFF"></rect><g><g transform="translate(527 585)"><path d="M0 -85.9L74.4 -42.9L74.4 42.9L0 85.9L-74.4 42.9L-74.4 -42.9Z" fill="none" stroke="#297EA6" stroke-width="1.0"></path></g><g transform="translate(885 137)"><path d="M0 -55L47.6 -27.5L47.6 27.5L0 55L-47.6 27.5L-47.6 -27.5Z" fill="none" stroke="#297EA6" stroke-width="1.0"></path></g><g transform="translate(140 369)"><path d="M0 -45L39 -22.5L39 22.5L0 45L-39 22.5L-39 -22.5Z" fill="none" stroke="#297EA6" stroke-width="1.0"></path></g><g transform="translate(870 337)"><path d="M0 -82L71 -41L71 41L0 82L-71 41L-71 -41Z" fill="none" stroke="#297EA6" stroke-width="1.0"></path></g><g transform="translate(339 467)"><path d="M0 -47L40.7 -23.5L40.7 23.5L0 47L-40.7 23.5L-40.7 -23.5Z" fill="none" stroke="#297EA6" stroke-width="1.0"></path></g><g transform="translate(95 32)"><path d="M0 -57L49.4 -28.5L49.4 28.5L0 57L-49.4 28.5L-49.4 -28.5Z" fill="none" stroke="#297EA6" stroke-width="1.0"></path></g><g transform="translate(669 55)"><path d="M0 -51L44.2 -25.5L44.2 25.5L0 51L-44.2 25.5L-44.2 -25.5Z" fill="none" stroke="#297EA6" stroke-width="1.0"></path></g><g transform="translate(462 128)"><path d="M0 -56L48.5 -28L48.5 28L0 56L-48.5 28L-48.5 -28Z" fill="none" stroke="#297EA6" stroke-width="1.0"></path></g><g transform="translate(647 227)"><path d="M0 -63L54.6 -31.5L54.6 31.5L0 63L-54.6 31.5L-54.6 -31.5Z" fill="none" stroke="#297EA6" stroke-width="1.0"></path></g><g transform="translate(105 565)"><path d="M0 -58L50.2 -29L50.2 29L0 58L-50.2 29L-50.2 -29Z" fill="none" stroke="#297EA6" stroke-width="1.0"></path></g></g></svg>